<svg width="260" height="140" viewBox="0 0 260 140" fill="none" xmlns="http://www.w3.org/2000/svg">
<g clip-path="url(#clip0)">
<path opacity="0.1" d="M260 89.8599C260.003 93.6632 259.479 97.4485 258.443 101.109C257.442 104.637 255.969 108.015 254.064 111.151C254.064 122.513 246.377 132.333 235.22 137.004C230.558 138.937 225.557 139.924 220.509 139.907H49.3568C40.2091 139.907 31.7318 137.444 24.7795 133.249C22.7898 132.054 20.9024 130.697 19.1363 129.192C11.4091 122.565 6.61816 113.407 6.61816 103.293C2.28138 96.6288 -0.0181847 88.8497 -1.52265e-05 80.9041C-1.52265e-05 64.267 9.86135 49.9613 23.9886 43.6453C25.8646 42.807 27.803 42.1155 29.7863 41.577C30.4879 41.3865 31.1969 41.2157 31.9136 41.0645C33.8241 40.6585 35.7619 40.3932 37.7113 40.2707C38.4159 40.2269 39.1242 40.2019 39.8363 40.1959H40.2272C41.0136 40.1959 41.7932 40.2231 42.5682 40.2685L42.8227 39.8376C43.1348 39.3175 43.4545 38.8027 43.7818 38.2932C44.3727 37.3648 44.9924 36.4501 45.6409 35.549C46.3197 34.598 47.028 33.6622 47.7659 32.7414L47.9545 32.5146C48.3727 31.9945 48.8 31.4805 49.2363 30.9725C50.6 29.3865 52.0394 27.8481 53.5545 26.3574C69.9431 10.3281 95.6181 0.00927734 124.482 0.00927734C146.941 0.00927734 167.47 6.25725 183.195 16.5806C189.153 13.2166 195.882 11.4514 202.727 11.4575C224.941 11.4575 242.954 29.6843 242.954 52.168C242.951 53.5906 242.875 55.0121 242.727 56.427C248.082 60.2094 252.446 65.2213 255.452 71.04C258.459 76.8587 260.018 83.3135 260 89.8599Z" fill="#E79F23"/>
<path opacity="0.2" d="M53.5591 26.3481V30.9632H49.2409C50.5939 29.3787 52.0333 27.8403 53.5591 26.3481Z" fill="#E79F23"/>
<path opacity="0.2" d="M61.4841 25.1779H55.6863V30.9632H61.4841V25.1779Z" fill="#E79F23"/>
<path opacity="0.2" d="M69.4068 25.1779H63.6091V30.9632H69.4068V25.1779Z" fill="#E79F23"/>
<path opacity="0.2" d="M77.3318 25.1779H71.5341V30.9632H77.3318V25.1779Z" fill="#E79F23"/>
<path opacity="0.2" d="M85.2545 25.1779H79.4568V30.9632H85.2545V25.1779Z" fill="#E79F23"/>
<path opacity="0.2" d="M93.1796 25.1779H87.3818V30.9632H93.1796V25.1779Z" fill="#E79F23"/>
<path d="M101.105 25.1779H95.3068V30.9632H101.105V25.1779Z" fill="#E79F23"/>
<path opacity="0.2" d="M109.027 25.1779H103.23V30.9632H109.027V25.1779Z" fill="#E79F23"/>
<path opacity="0.2" d="M116.952 25.1779H111.155V30.9632H116.952V25.1779Z" fill="#E79F23"/>
<path opacity="0.2" d="M124.875 25.1779H119.077V30.9632H124.875V25.1779Z" fill="#E79F23"/>
<path d="M132.8 25.1779H127.002V30.9632H132.8V25.1779Z" fill="#E79F23"/>
<path opacity="0.2" d="M140.725 25.1779H134.927V30.9632H140.725V25.1779Z" fill="#E79F23"/>
<path opacity="0.2" d="M148.648 25.1779H142.85V30.9632H148.648V25.1779Z" fill="#E79F23"/>
<path opacity="0.2" d="M156.573 25.1779H150.775V30.9632H156.573V25.1779Z" fill="#E79F23"/>
<path opacity="0.2" d="M164.498 25.1779H158.7V30.9632H164.498V25.1779Z" fill="#E79F23"/>
<path opacity="0.2" d="M172.42 25.1779H166.623V30.9632H172.42V25.1779Z" fill="#E79F23"/>
<path opacity="0.2" d="M180.345 25.1779H174.548V30.9632H180.345V25.1779Z" fill="#E79F23"/>
<path d="M188.268 25.1779H182.47V30.9632H188.268V25.1779Z" fill="#E79F23"/>
<path d="M196.193 25.1779H190.396V30.9632H196.193V25.1779Z" fill="#E79F23"/>
<path opacity="0.2" d="M204.118 25.1779H198.32V30.9632H204.118V25.1779Z" fill="#E79F23"/>
<path opacity="0.2" d="M212.041 25.1779H206.243V30.9632H212.041V25.1779Z" fill="#E79F23"/>
<path d="M219.966 25.1779H214.168V30.9632H219.966V25.1779Z" fill="#E79F23"/>
<path d="M227.889 25.1779H222.091V30.9632H227.889V25.1779Z" fill="#E79F23"/>
<path d="M45.6364 35.5466V38.2907H43.7773C44.3682 37.3563 44.9879 36.4416 45.6364 35.5466Z" fill="#E79F23"/>
<path opacity="0.2" d="M53.5591 32.5053H47.7614V38.2906H53.5591V32.5053Z" fill="#E79F23"/>
<path d="M61.4841 32.5053H55.6863V38.2906H61.4841V32.5053Z" fill="#E79F23"/>
<path opacity="0.2" d="M69.4068 32.5053H63.6091V38.2906H69.4068V32.5053Z" fill="#E79F23"/>
<path opacity="0.7" d="M77.3318 32.5053H71.5341V38.2906H77.3318V32.5053Z" fill="#E79F23"/>
<path opacity="0.2" d="M85.2545 32.5053H79.4568V38.2906H85.2545V32.5053Z" fill="#E79F23"/>
<path opacity="0.4" d="M93.1796 32.5053H87.3818V38.2906H93.1796V32.5053Z" fill="#E79F23"/>
<path d="M101.105 32.5053H95.3068V38.2906H101.105V32.5053Z" fill="#E79F23"/>
<path opacity="0.4" d="M109.027 32.5053H103.23V38.2906H109.027V32.5053Z" fill="#E79F23"/>
<path opacity="0.2" d="M116.952 32.5053H111.155V38.2906H116.952V32.5053Z" fill="#E79F23"/>
<path opacity="0.4" d="M124.875 32.5053H119.077V38.2906H124.875V32.5053Z" fill="#E79F23"/>
<path d="M132.8 32.5053H127.002V38.2906H132.8V32.5053Z" fill="#E79F23"/>
<path opacity="0.4" d="M140.725 32.5053H134.927V38.2906H140.725V32.5053Z" fill="#E79F23"/>
<path opacity="0.4" d="M148.648 32.5053H142.85V38.2906H148.648V32.5053Z" fill="#E79F23"/>
<path opacity="0.2" d="M156.573 32.5053H150.775V38.2906H156.573V32.5053Z" fill="#E79F23"/>
<path opacity="0.4" d="M164.498 32.5053H158.7V38.2906H164.498V32.5053Z" fill="#E79F23"/>
<path opacity="0.4" d="M172.42 32.5053H166.623V38.2906H172.42V32.5053Z" fill="#E79F23"/>
<path opacity="0.2" d="M180.345 32.5053H174.548V38.2906H180.345V32.5053Z" fill="#E79F23"/>
<path opacity="0.2" d="M188.268 32.5053H182.47V38.2906H188.268V32.5053Z" fill="#E79F23"/>
<path opacity="0.4" d="M196.193 32.5053H190.396V38.2906H196.193V32.5053Z" fill="#E79F23"/>
<path opacity="0.2" d="M204.118 32.5053H198.32V38.2906H204.118V32.5053Z" fill="#E79F23"/>
<path d="M212.041 32.5053H206.243V38.2906H212.041V32.5053Z" fill="#E79F23"/>
<path d="M219.966 32.5053H214.168V38.2906H219.966V32.5053Z" fill="#E79F23"/>
<path d="M227.889 32.5053H222.091V38.2906H227.889V32.5053Z" fill="#E79F23"/>
<path opacity="0.2" d="M29.7864 41.5768V45.6205H23.9886V43.6451C25.8646 42.8068 27.803 42.1153 29.7864 41.5768Z" fill="#E79F23"/>
<path opacity="0.2" d="M37.7114 40.2705V45.6204H31.9136V41.0643L37.7114 40.2705Z" fill="#E79F23"/>
<path d="M45.6341 39.8351H39.8364V45.6204H45.6341V39.8351Z" fill="#E79F23"/>
<path opacity="0.7" d="M53.5591 39.8351H47.7614V45.6204H53.5591V39.8351Z" fill="#E79F23"/>
<path d="M61.4841 39.8351H55.6863V45.6204H61.4841V39.8351Z" fill="#E79F23"/>
<path opacity="0.7" d="M69.4068 39.8351H63.6091V45.6204H69.4068V39.8351Z" fill="#E79F23"/>
<path opacity="0.7" d="M77.3318 39.8351H71.5341V45.6204H77.3318V39.8351Z" fill="#E79F23"/>
<path opacity="0.2" d="M85.2545 39.8351H79.4568V45.6204H85.2545V39.8351Z" fill="#E79F23"/>
<path opacity="0.4" d="M93.1796 39.8351H87.3818V45.6204H93.1796V39.8351Z" fill="#E79F23"/>
<path opacity="0.4" d="M101.105 39.8351H95.3068V45.6204H101.105V39.8351Z" fill="#E79F23"/>
<path d="M109.027 39.8351H103.23V45.6204H109.027V39.8351Z" fill="#E79F23"/>
<path opacity="0.2" d="M116.952 39.8351H111.155V45.6204H116.952V39.8351Z" fill="#E79F23"/>
<path opacity="0.4" d="M124.875 39.8351H119.077V45.6204H124.875V39.8351Z" fill="#E79F23"/>
<path d="M132.8 39.8351H127.002V45.6204H132.8V39.8351Z" fill="#E79F23"/>
<path opacity="0.2" d="M140.725 39.8351H134.927V45.6204H140.725V39.8351Z" fill="#E79F23"/>
<path opacity="0.4" d="M148.648 39.8351H142.85V45.6204H148.648V39.8351Z" fill="#E79F23"/>
<path opacity="0.2" d="M156.573 39.8351H150.775V45.6204H156.573V39.8351Z" fill="#E79F23"/>
<path d="M164.498 39.8351H158.7V45.6204H164.498V39.8351Z" fill="#E79F23"/>
<path opacity="0.2" d="M172.42 39.8351H166.623V45.6204H172.42V39.8351Z" fill="#E79F23"/>
<path opacity="0.7" d="M180.345 39.8351H174.548V45.6204H180.345V39.8351Z" fill="#E79F23"/>
<path opacity="0.7" d="M188.268 39.8351H182.47V45.6204H188.268V39.8351Z" fill="#E79F23"/>
<path opacity="0.4" d="M196.193 39.8351H190.396V45.6204H196.193V39.8351Z" fill="#E79F23"/>
<path opacity="0.2" d="M204.118 39.8351H198.32V45.6204H204.118V39.8351Z" fill="#E79F23"/>
<path d="M212.041 39.8351H206.243V45.6204H212.041V39.8351Z" fill="#E79F23"/>
<path d="M219.966 39.8351H214.168V45.6204H219.966V39.8351Z" fill="#E79F23"/>
<path d="M227.889 39.8351H222.091V45.6204H227.889V39.8351Z" fill="#E79F23"/>
<path opacity="0.2" d="M29.7864 47.1625H23.9886V52.9479H29.7864V47.1625Z" fill="#E79F23"/>
<path opacity="0.2" d="M37.7114 47.1625H31.9136V52.9479H37.7114V47.1625Z" fill="#E79F23"/>
<path opacity="0.2" d="M45.6341 47.1625H39.8364V52.9479H45.6341V47.1625Z" fill="#E79F23"/>
<path opacity="0.2" d="M53.5591 47.1625H47.7614V52.9479H53.5591V47.1625Z" fill="#E79F23"/>
<path d="M61.4841 47.1625H55.6863V52.9479H61.4841V47.1625Z" fill="#E79F23"/>
<path opacity="0.7" d="M69.4068 47.1625H63.6091V52.9479H69.4068V47.1625Z" fill="#E79F23"/>
<path opacity="0.7" d="M77.3318 47.1625H71.5341V52.9479H77.3318V47.1625Z" fill="#E79F23"/>
<path opacity="0.2" d="M85.2545 47.1625H79.4568V52.9479H85.2545V47.1625Z" fill="#E79F23"/>
<path opacity="0.2" d="M93.1796 47.1625H87.3818V52.9479H93.1796V47.1625Z" fill="#E79F23"/>
<path opacity="0.4" d="M101.105 47.1625H95.3068V52.9479H101.105V47.1625Z" fill="#E79F23"/>
<path opacity="0.4" d="M109.027 47.1625H103.23V52.9479H109.027V47.1625Z" fill="#E79F23"/>
<path d="M116.952 47.1625H111.155V52.9479H116.952V47.1625Z" fill="#E79F23"/>
<path opacity="0.2" d="M124.875 47.1625H119.077V52.9479H124.875V47.1625Z" fill="#E79F23"/>
<path opacity="0.4" d="M132.8 47.1625H127.002V52.9479H132.8V47.1625Z" fill="#E79F23"/>
<path opacity="0.4" d="M140.725 47.1625H134.927V52.9479H140.725V47.1625Z" fill="#E79F23"/>
<path opacity="0.4" d="M148.648 47.1625H142.85V52.9479H148.648V47.1625Z" fill="#E79F23"/>
<path opacity="0.4" d="M156.573 47.1625H150.775V52.9479H156.573V47.1625Z" fill="#E79F23"/>
<path opacity="0.2" d="M164.498 47.1625H158.7V52.9479H164.498V47.1625Z" fill="#E79F23"/>
<path opacity="0.2" d="M172.42 47.1625H166.623V52.9479H172.42V47.1625Z" fill="#E79F23"/>
<path opacity="0.2" d="M180.345 47.1625H174.548V52.9479H180.345V47.1625Z" fill="#E79F23"/>
<path opacity="0.2" d="M188.268 47.1625H182.47V52.9479H188.268V47.1625Z" fill="#E79F23"/>
<path opacity="0.7" d="M196.193 47.1625H190.396V52.9479H196.193V47.1625Z" fill="#E79F23"/>
<path opacity="0.7" d="M204.118 47.1625H198.32V52.9479H204.118V47.1625Z" fill="#E79F23"/>
<path opacity="0.4" d="M212.041 47.1625H206.243V52.9479H212.041V47.1625Z" fill="#E79F23"/>
<path opacity="0.2" d="M219.966 47.1625H214.168V52.9479H219.966V47.1625Z" fill="#E79F23"/>
<path d="M227.889 47.1625H222.091V52.9479H227.889V47.1625Z" fill="#E79F23"/>
<path opacity="0.2" d="M29.7864 54.4923H23.9886V60.2776H29.7864V54.4923Z" fill="#E79F23"/>
<path opacity="0.2" d="M37.7114 54.4923H31.9136V60.2776H37.7114V54.4923Z" fill="#E79F23"/>
<path opacity="0.4" d="M45.6341 54.4923H39.8364V60.2776H45.6341V54.4923Z" fill="#E79F23"/>
<path opacity="0.2" d="M53.5591 54.4923H47.7614V60.2776H53.5591V54.4923Z" fill="#E79F23"/>
<path opacity="0.2" d="M61.4841 54.4923H55.6863V60.2776H61.4841V54.4923Z" fill="#E79F23"/>
<path opacity="0.7" d="M69.4068 54.4923H63.6091V60.2776H69.4068V54.4923Z" fill="#E79F23"/>
<path opacity="0.7" d="M77.3318 54.4923H71.5341V60.2776H77.3318V54.4923Z" fill="#E79F23"/>
<path opacity="0.2" d="M85.2545 54.4923H79.4568V60.2776H85.2545V54.4923Z" fill="#E79F23"/>
<path opacity="0.2" d="M93.1796 54.4923H87.3818V60.2776H93.1796V54.4923Z" fill="#E79F23"/>
<path opacity="0.4" d="M101.105 54.4923H95.3068V60.2776H101.105V54.4923Z" fill="#E79F23"/>
<path d="M109.027 54.4923H103.23V60.2776H109.027V54.4923Z" fill="#E79F23"/>
<path opacity="0.2" d="M116.952 54.4923H111.155V60.2776H116.952V54.4923Z" fill="#E79F23"/>
<path d="M124.875 54.4923H119.077V60.2776H124.875V54.4923Z" fill="#E79F23"/>
<path d="M132.8 54.4923H127.002V60.2776H132.8V54.4923Z" fill="#E79F23"/>
<path d="M140.725 54.4923H134.927V60.2776H140.725V54.4923Z" fill="#E79F23"/>
<path opacity="0.2" d="M148.648 54.4923H142.85V60.2776H148.648V54.4923Z" fill="#E79F23"/>
<path d="M156.573 54.4923H150.775V60.2776H156.573V54.4923Z" fill="#E79F23"/>
<path opacity="0.2" d="M164.498 54.4923H158.7V60.2776H164.498V54.4923Z" fill="#E79F23"/>
<path opacity="0.2" d="M172.42 54.4923H166.623V60.2776H172.42V54.4923Z" fill="#E79F23"/>
<path opacity="0.2" d="M180.345 54.4923H174.548V60.2776H180.345V54.4923Z" fill="#E79F23"/>
<path opacity="0.2" d="M188.268 54.4923H182.47V60.2776H188.268V54.4923Z" fill="#E79F23"/>
<path opacity="0.2" d="M196.193 54.4923H190.396V60.2776H196.193V54.4923Z" fill="#E79F23"/>
<path opacity="0.7" d="M204.118 54.4923H198.32V60.2776H204.118V54.4923Z" fill="#E79F23"/>
<path opacity="0.2" d="M212.041 54.4923H206.243V60.2776H212.041V54.4923Z" fill="#E79F23"/>
<path opacity="0.2" d="M219.966 54.4923H214.168V60.2776H219.966V54.4923Z" fill="#E79F23"/>
<path d="M227.889 54.4923H222.091V60.2776H227.889V54.4923Z" fill="#E79F23"/>
<path opacity="0.2" d="M29.7864 61.8198H23.9886V67.6052H29.7864V61.8198Z" fill="#E79F23"/>
<path opacity="0.2" d="M37.7114 61.8198H31.9136V67.6052H37.7114V61.8198Z" fill="#E79F23"/>
<path opacity="0.2" d="M45.6341 61.8198H39.8364V67.6052H45.6341V61.8198Z" fill="#E79F23"/>
<path opacity="0.4" d="M53.5591 61.8198H47.7614V67.6052H53.5591V61.8198Z" fill="#E79F23"/>
<path opacity="0.2" d="M61.4841 61.8198H55.6863V67.6052H61.4841V61.8198Z" fill="#E79F23"/>
<path opacity="0.2" d="M69.4068 61.8198H63.6091V67.6052H69.4068V61.8198Z" fill="#E79F23"/>
<path opacity="0.7" d="M77.3318 61.8198H71.5341V67.6052H77.3318V61.8198Z" fill="#E79F23"/>
<path opacity="0.2" d="M85.2545 61.8198H79.4568V67.6052H85.2545V61.8198Z" fill="#E79F23"/>
<path opacity="0.2" d="M93.1796 61.8198H87.3818V67.6052H93.1796V61.8198Z" fill="#E79F23"/>
<path opacity="0.2" d="M101.105 61.8198H95.3068V67.6052H101.105V61.8198Z" fill="#E79F23"/>
<path d="M109.027 61.8198H103.23V67.6052H109.027V61.8198Z" fill="#E79F23"/>
<path opacity="0.2" d="M116.952 61.8198H111.155V67.6052H116.952V61.8198Z" fill="#E79F23"/>
<path d="M124.875 61.8198H119.077V67.6052H124.875V61.8198Z" fill="#E79F23"/>
<path d="M132.8 61.8198H127.002V67.6052H132.8V61.8198Z" fill="#E79F23"/>
<path opacity="0.2" d="M140.725 61.8198H134.927V67.6052H140.725V61.8198Z" fill="#E79F23"/>
<path opacity="0.2" d="M148.648 61.8198H142.85V67.6052H148.648V61.8198Z" fill="#E79F23"/>
<path opacity="0.2" d="M156.573 61.8198H150.775V67.6052H156.573V61.8198Z" fill="#E79F23"/>
<path opacity="0.2" d="M164.498 61.8198H158.7V67.6052H164.498V61.8198Z" fill="#E79F23"/>
<path opacity="0.2" d="M172.42 61.8198H166.623V67.6052H172.42V61.8198Z" fill="#E79F23"/>
<path opacity="0.2" d="M180.345 61.8198H174.548V67.6052H180.345V61.8198Z" fill="#E79F23"/>
<path opacity="0.2" d="M188.268 61.8198H182.47V67.6052H188.268V61.8198Z" fill="#E79F23"/>
<path opacity="0.2" d="M196.193 61.8198H190.396V67.6052H196.193V61.8198Z" fill="#E79F23"/>
<path opacity="0.2" d="M204.118 61.8198H198.32V67.6052H204.118V61.8198Z" fill="#E79F23"/>
<path opacity="0.2" d="M212.041 61.8198H206.243V67.6052H212.041V61.8198Z" fill="#E79F23"/>
<path opacity="0.4" d="M219.966 61.8198H214.168V67.6052H219.966V61.8198Z" fill="#E79F23"/>
<path d="M227.889 61.8198H222.091V67.6052H227.889V61.8198Z" fill="#E79F23"/>
<path opacity="0.7" d="M29.7864 69.1495H23.9886V74.9348H29.7864V69.1495Z" fill="#E79F23"/>
<path opacity="0.7" d="M37.7114 69.1495H31.9136V74.9348H37.7114V69.1495Z" fill="#E79F23"/>
<path opacity="0.7" d="M45.6341 69.1495H39.8364V74.9348H45.6341V69.1495Z" fill="#E79F23"/>
<path opacity="0.7" d="M53.5591 69.1495H47.7614V74.9348H53.5591V69.1495Z" fill="#E79F23"/>
<path opacity="0.7" d="M61.4841 69.1495H55.6863V74.9348H61.4841V69.1495Z" fill="#E79F23"/>
<path opacity="0.2" d="M69.4068 69.1495H63.6091V74.9348H69.4068V69.1495Z" fill="#E79F23"/>
<path opacity="0.2" d="M77.3318 69.1495H71.5341V74.9348H77.3318V69.1495Z" fill="#E79F23"/>
<path opacity="0.2" d="M85.2545 69.1495H79.4568V74.9348H85.2545V69.1495Z" fill="#E79F23"/>
<path opacity="0.2" d="M93.1796 69.1495H87.3818V74.9348H93.1796V69.1495Z" fill="#E79F23"/>
<path opacity="0.2" d="M101.105 69.1495H95.3068V74.9348H101.105V69.1495Z" fill="#E79F23"/>
<path opacity="0.2" d="M109.027 69.1495H103.23V74.9348H109.027V69.1495Z" fill="#E79F23"/>
<path d="M116.952 69.1495H111.155V74.9348H116.952V69.1495Z" fill="#E79F23"/>
<path opacity="0.2" d="M124.875 69.1495H119.077V74.9348H124.875V69.1495Z" fill="#E79F23"/>
<path opacity="0.2" d="M132.8 69.1495H127.002V74.9348H132.8V69.1495Z" fill="#E79F23"/>
<path opacity="0.2" d="M140.725 69.1495H134.927V74.9348H140.725V69.1495Z" fill="#E79F23"/>
<path d="M148.648 69.1495H142.85V74.9348H148.648V69.1495Z" fill="#E79F23"/>
<path opacity="0.2" d="M156.573 69.1495H150.775V74.9348H156.573V69.1495Z" fill="#E79F23"/>
<path opacity="0.2" d="M164.498 69.1495H158.7V74.9348H164.498V69.1495Z" fill="#E79F23"/>
<path opacity="0.2" d="M172.42 69.1495H166.623V74.9348H172.42V69.1495Z" fill="#E79F23"/>
<path opacity="0.2" d="M180.345 69.1495H174.548V74.9348H180.345V69.1495Z" fill="#E79F23"/>
<path opacity="0.2" d="M188.268 69.1495H182.47V74.9348H188.268V69.1495Z" fill="#E79F23"/>
<path opacity="0.2" d="M196.193 69.1495H190.396V74.9348H196.193V69.1495Z" fill="#E79F23"/>
<path opacity="0.2" d="M204.118 69.1495H198.32V74.9348H204.118V69.1495Z" fill="#E79F23"/>
<path opacity="0.2" d="M212.041 69.1495H206.243V74.9348H212.041V69.1495Z" fill="#E79F23"/>
<path opacity="0.2" d="M219.966 69.1495H214.168V74.9348H219.966V69.1495Z" fill="#E79F23"/>
<path d="M227.889 69.1495H222.091V74.9348H227.889V69.1495Z" fill="#E79F23"/>
<path d="M166.936 90.4335C171.313 90.4335 174.861 86.8929 174.861 82.5254C174.861 78.1579 171.313 74.6174 166.936 74.6174C162.56 74.6174 159.011 78.1579 159.011 82.5254C159.011 86.8929 162.56 90.4335 166.936 90.4335Z" fill="#767D9F"/>
<path d="M166.525 72.4652C167.316 75.9093 167.987 79.3791 168.539 82.8747C168.705 83.9134 168.852 85.0088 168.475 85.9907C168.159 86.8094 167.516 87.449 167.011 88.1656C166.507 88.8823 166.125 89.8008 166.432 90.6217C166.739 91.4427 167.634 91.8917 168.489 92.1231C170.934 92.7807 173.541 92.3022 175.975 91.5901C177.077 91.307 178.134 90.8703 179.114 90.2929C180.145 89.6397 180.991 88.7326 181.768 87.7982C185.316 83.5052 187.639 78.3526 189.825 73.2317C188.42 73.3593 187.005 73.1515 185.697 72.6254C184.388 72.0994 183.224 71.2702 182.3 70.2064C181.405 69.1564 180.748 67.6936 181.252 66.41C179.773 67.2196 178.016 67.274 176.423 67.8274C175.435 68.2039 174.484 68.6708 173.582 69.2221C172.494 69.8496 171.412 70.4891 170.336 71.1407C169.107 71.8801 167.955 72.5377 166.525 72.4652Z" fill="#AE6E79"/>
<path d="M183.1 78.4024C181.711 81.0989 179.905 83.6911 177.325 85.2968C174.745 86.9024 171.273 87.3378 168.689 85.7503C167.416 84.9747 166.452 83.7954 165.341 82.8021C164.23 81.8088 162.841 80.9583 161.348 81.0876C159.702 81.2305 158.414 82.5118 157.311 83.7387C155.639 85.6029 154.023 87.5465 152.839 89.7531C150.566 93.994 150.027 98.9516 150.127 103.759C150.227 108.567 150.925 113.35 150.941 118.158C150.964 124.073 149.959 129.94 148.943 135.766C158.284 134.618 167.636 137.127 176.998 138.077C182.989 138.691 189.025 138.678 195.048 138.662C196.107 138.662 197.234 138.635 198.116 138.05C198.655 137.657 199.091 137.141 199.386 136.544C200.218 135.013 200.552 133.267 200.784 131.541C201.373 127.182 201.391 122.769 201.407 118.369C201.448 107.71 201.486 97.0126 200.13 86.4375C199.795 83.8362 199.368 81.2214 198.368 78.788C197.368 76.3546 195.736 74.1162 193.455 72.8121C191.989 71.973 188.591 70.5125 186.864 71.3584C184.925 72.3019 184.03 76.5972 183.1 78.4024Z" fill="#767D9F"/>
<path d="M183.791 108.502C183.439 101.925 182.005 94.9057 185.057 89.0683C185.807 87.635 183.116 85.8456 183.948 84.4577C184.963 82.7655 185.733 80.9383 186.234 79.0307C186.407 78.3753 186.545 77.6813 186.382 77.0236C186.08 75.8239 184.891 75.1095 183.882 74.3793C182.768 73.5719 182.195 71.1113 181.836 69.78C181.477 68.4488 184.693 70.0522 185.986 69.5782C187.782 68.9228 190.064 69.3355 191.855 70C192.855 70.3674 193.941 70.3992 195.007 70.4264C197.077 70.4808 199.155 70.533 201.209 70.279C202.132 70.1633 203.057 69.9887 203.984 70.0408C206.35 70.1747 208.407 71.7894 209.807 73.6989C211.207 75.6085 212.098 77.8332 213.245 79.9015C214.202 81.6251 215.343 83.2534 216.159 85.0473C216.882 86.6348 217.339 88.3403 217.791 90.0366L218.957 94.3887C219.161 95.0112 219.258 95.6638 219.243 96.3186C219.184 97.0149 218.875 97.6635 218.561 98.2826C217.375 100.577 215.953 102.743 214.318 104.744C211.866 107.744 208.889 110.45 207.432 114.042C206.864 115.441 206.548 116.929 206.259 118.412C205.095 124.344 204.268 130.337 203.782 136.362C201.126 135.136 198.343 134.207 195.482 133.593C194.056 133.289 192.614 133.062 191.164 132.913C189.893 132.781 188.255 133.031 187.045 132.686C185.023 132.112 184.8 128.699 184.493 126.912C184.002 124.066 183.905 121.17 183.886 118.294C183.864 115.024 183.966 111.761 183.791 108.502Z" fill="#4C4981"/>
<path d="M139.37 96.203C140.327 101.646 141.382 107.105 143.461 112.219C143.409 112.269 143.357 112.314 143.305 112.359C143.12 112.516 142.93 112.663 142.73 112.813C142.264 113.139 141.752 113.416 141.366 113.842C141.22 114.006 141.104 114.194 141.025 114.398C140.954 114.558 140.917 114.73 140.917 114.905C140.917 115.08 140.954 115.252 141.025 115.412C139.941 115.89 138.682 115.743 137.466 115.698C136.418 115.659 135.402 115.698 134.561 116.271C133.393 117.074 133.041 118.616 132.852 120.018C132.783 120.529 132.723 121.041 132.673 121.553C132.624 122.029 132.585 122.507 132.555 122.986C132.452 124.572 132.437 126.162 132.511 127.749C132.523 128.039 132.539 128.33 132.559 128.62C128.845 128.531 125.461 126.599 122.259 124.721C121.527 124.293 120.773 123.841 120.298 123.134C119.86 122.439 119.675 121.615 119.773 120.8C119.773 120.685 119.793 120.573 119.809 120.456C119.911 119.783 120.085 119.123 120.33 118.487C121.331 115.78 122.808 113.273 124.691 111.082C125.505 110.134 126.42 109.207 126.8 108.016C126.966 107.497 127.027 106.946 127.195 106.429C127.95 104.188 130.673 103.129 131.605 100.954C131.832 100.435 131.936 99.8656 132.218 99.3667C132.472 98.952 132.799 98.587 133.184 98.2894C133.35 98.1511 133.523 98.0173 133.693 97.8835C135.29 96.6346 136.829 95.3155 138.309 93.926C138.585 93.6675 138.858 93.4059 139.127 93.1414C139.091 94.1678 139.173 95.195 139.37 96.203Z" fill="#4C4981"/>
<path d="M162.273 80.1056C161.945 80.4504 161.591 80.7747 161.243 81.0967L161.15 81.1806L160.782 81.5208C160.114 82.0963 159.535 82.7682 159.066 83.5142L159.027 83.5777C157.868 85.6483 158.298 88.1974 158.62 90.5492C159.021 93.4799 159.201 96.4363 159.159 99.3938C159.1 103.476 158.618 107.531 158.609 111.609C158.609 112.534 158.63 113.457 158.67 114.382C158.736 115.886 158.85 117.387 158.986 118.888C159.134 120.535 159.311 122.179 159.477 123.823C159.609 125.096 159.734 126.366 159.839 127.636C159.891 128.293 159.941 128.949 159.982 129.606C160.03 130.377 160.068 131.151 160.091 131.922C160.107 132.412 160.116 132.899 160.116 133.389C160.116 133.668 160.116 133.945 160.116 134.221C160.116 134.752 160.102 135.281 160.073 135.809C160.042 136.488 159.996 137.168 159.934 137.85C159.864 138.592 159.739 139.401 159.216 139.923C159.184 139.955 159.15 139.984 159.116 140.014L158.38 139.923C153.303 139.316 148.179 139.225 143.084 139.651C143.195 138.884 143.298 138.12 143.398 137.351C143.443 136.988 143.489 136.623 143.532 136.258C143.582 135.841 143.63 135.423 143.675 135.006C143.727 134.553 143.775 134.099 143.82 133.645C143.939 132.477 144.042 131.307 144.132 130.137C144.264 128.43 144.364 126.72 144.432 125.007C144.465 124.189 144.491 123.37 144.509 122.551C144.535 121.535 144.547 120.518 144.545 119.501C144.545 118.512 144.537 117.522 144.52 116.53C144.52 116.203 144.507 115.877 144.48 115.552C144.46 115.26 144.42 114.97 144.359 114.684C144.19 114.024 143.962 113.38 143.677 112.761C143.627 112.643 143.58 112.534 143.532 112.409C143.505 112.348 143.48 112.284 143.455 112.223C144.764 111.06 145.695 109.502 146.591 107.969C148.043 105.499 149.53 102.92 149.773 100.067C150.016 97.2144 148.595 94.0099 145.864 93.1391C145.12 92.9123 144.334 92.8488 143.568 92.715C142.845 92.588 141.339 92.2999 140.502 91.7829C140.048 92.2485 139.593 92.7059 139.139 93.1549C139.166 92.4698 139.334 91.7976 139.632 91.1796L139.955 91.1955C139.928 91.1229 139.916 91.0459 139.918 90.9687C139.918 90.7261 140.086 90.4516 140.445 90.1478C141.516 89.2406 143.2 89.0388 143.875 87.8118C144.157 87.3016 144.205 86.6938 144.432 86.1586C145.084 84.6323 146.957 84.0699 148.084 82.8498C149.211 81.6296 149.493 79.9015 150.405 78.5408C151.085 77.5471 152.03 76.7619 153.132 76.273C153.223 76.2299 153.316 76.1868 153.409 76.1482C155.295 75.3431 157.536 75.1594 159.491 75.164C160.25 75.164 162.218 75.1866 163.182 75.5699C163.338 75.6256 163.481 75.7129 163.602 75.8262C164.63 76.942 163.032 79.2983 162.273 80.1056Z" fill="#4C4981"/>
<path d="M139.709 91.0209C141.465 90.4935 143.308 90.3196 145.132 90.5092C146.955 90.6988 148.723 91.2481 150.332 92.1254C151.968 93.0325 153.436 94.298 154.336 95.9308C155.689 98.3801 155.63 101.333 155.534 104.129C155.486 105.528 155.425 106.978 154.807 108.234C154.091 109.688 152.741 110.686 151.364 111.502C150.501 112.051 149.556 112.459 148.564 112.711C147.036 113.042 145.45 112.761 143.911 112.484C142.239 112.176 140.443 111.804 139.282 110.561C138.6 109.84 138.227 108.903 137.859 107.987C137.33 106.664 136.8 105.342 136.268 104.023C135.348 101.73 135.036 99.8225 136.252 97.5887C136.805 96.5704 137.48 95.6179 138.025 94.5928C138.298 94.0712 139.275 91.1547 139.709 91.0209Z" fill="#4C4981"/>
<path d="M235.227 130.225V137.006C230.565 138.939 225.564 139.926 220.516 139.909H159.223C159.191 139.941 159.157 139.97 159.123 140L158.386 139.909H49.3568C40.2091 139.909 31.7318 137.446 24.7795 133.251V122.898L77.2159 116.859H77.2568L107.793 119.439L115.695 120.12L119.8 120.467L128.295 121.186L132.666 121.555L139.03 122.095L139.925 122.17L144.511 122.558L150.734 123.068L159.484 123.807L174.07 125.043L184.332 125.912L201.182 127.338L204.386 127.608L204.732 127.638L205.032 127.663L209.264 128.021L213.909 128.416L214.448 128.461L235.227 130.225Z" fill="#504F60"/>
<path d="M173.636 129.976L107.923 118.784L105.375 131.641L135.498 135.24L144.773 136.399L170.286 131.384L173.636 129.976Z" fill="#9C9CA1"/>
<path d="M139.62 135.755L172.543 129.579C172.708 129.548 172.878 129.553 173.04 129.595C173.202 129.636 173.354 129.713 173.483 129.82C173.612 129.927 173.715 130.061 173.786 130.213C173.857 130.364 173.894 130.53 173.893 130.697C173.894 130.963 173.801 131.22 173.631 131.424C173.462 131.629 173.225 131.767 172.964 131.815L140.811 137.823L139.62 135.755Z" fill="#9C9CA1"/>
<path d="M153.902 116.335C154.927 116.24 155.966 116.078 156.889 115.625C158.025 115.06 158.909 114.087 159.961 113.371C162.275 111.783 165.37 111.57 168.023 112.482C170.675 113.393 172.889 115.346 174.439 117.677C175.468 119.231 176.241 121.213 175.514 122.927C175.264 123.452 174.95 123.942 174.577 124.388L172.682 126.86C172.322 127.38 171.889 127.845 171.395 128.241C170.686 128.756 169.805 128.967 168.936 129.094C166.63 129.429 164.282 129.239 161.957 129.393C157.964 129.659 154.064 130.942 150.061 130.899C147.761 130.874 145.491 130.411 143.243 129.949L133.295 127.908C131.564 127.554 129.607 127.037 128.791 125.47C128.425 124.764 128.357 123.948 128.314 123.154C128.195 120.968 128.314 118.537 129.832 116.961C131.259 115.482 133.516 115.015 135.22 113.922C137.307 112.581 137.995 113.015 140.195 114.022C144.487 115.961 149.21 116.758 153.902 116.335Z" fill="#AE6E79"/>
<path opacity="0.05" d="M153.902 116.335C154.927 116.24 155.966 116.078 156.889 115.625C158.025 115.06 158.909 114.087 159.961 113.371C162.275 111.783 165.37 111.57 168.023 112.482C170.675 113.393 172.889 115.346 174.439 117.677C175.468 119.231 176.241 121.213 175.514 122.927C175.264 123.452 174.95 123.942 174.577 124.388L172.682 126.86C172.322 127.38 171.889 127.845 171.395 128.241C170.686 128.756 169.805 128.967 168.936 129.094C166.63 129.429 164.282 129.239 161.957 129.393C157.964 129.659 154.064 130.942 150.061 130.899C147.761 130.874 145.491 130.411 143.243 129.949L133.295 127.908C131.564 127.554 129.607 127.037 128.791 125.47C128.425 124.764 128.357 123.948 128.314 123.154C128.195 120.968 128.314 118.537 129.832 116.961C131.259 115.482 133.516 115.015 135.22 113.922C137.307 112.581 137.995 113.015 140.195 114.022C144.487 115.961 149.21 116.758 153.902 116.335Z" fill="black"/>
<path d="M193.85 113.226C191.059 114.303 188.252 115.385 185.33 116.026C180.43 117.104 175.302 116.933 170.441 118.165C167.873 118.818 165.32 119.87 162.682 119.657C161.502 119.562 160.364 119.204 159.216 118.931C152.768 117.344 145.439 117.859 140.202 121.941C138.411 123.336 136.945 125.075 135.616 126.93C135.331 127.331 135.139 127.789 135.053 128.273C134.967 128.756 134.988 129.253 135.117 129.727C135.245 130.201 135.477 130.641 135.795 131.015C136.114 131.39 136.511 131.689 136.959 131.892C138.995 132.827 141.177 133.407 143.409 133.609C146.393 133.872 149.391 133.45 152.359 133.029C156.764 132.405 161.17 131.779 165.564 131.078C167.141 130.826 168.718 130.566 170.305 130.366C181.72 128.926 193.343 130.677 204.789 129.475C205.945 129.352 207.123 129.194 208.175 128.701C210.839 127.454 212.157 124.166 211.607 121.276C211.057 118.387 208.934 115.986 206.38 114.511C204.239 113.271 201.93 112.77 199.545 112.244C197.332 111.729 195.982 112.409 193.85 113.226Z" fill="#AE6E79"/>
<path opacity="0.1" d="M218.334 95.9535C219.593 97.5999 219.861 99.8089 219.725 101.87C219.589 103.932 219.098 105.971 219.025 108.041C218.925 110.881 219.611 113.711 219.495 116.541C219.414 118.521 218.943 120.462 218.386 122.363C217.73 124.606 216.78 127.016 214.705 128.094C211.95 129.525 206.173 128.72 203.275 129.84C203.539 128.2 206.066 125.826 206.33 124.186C206.511 123.052 206.695 121.887 206.5 120.75C206.25 119.301 205.398 118.015 204.386 116.945C202.777 115.242 200.677 113.96 198.37 113.543C196.064 113.126 190.416 113.468 188.57 114.922C188.343 113.421 192.57 111.974 194.057 111.649C194.798 111.484 195.648 111.577 196.241 111.107C197.377 110.218 196.552 108.447 196.607 107.025C196.65 105.891 197.314 104.853 197.448 103.719C197.675 101.904 196.489 100.056 196.955 98.2758C197.127 97.6181 197.511 97.0398 197.777 96.4138C198.586 94.4975 198.232 92.3113 197.8 90.2747C197.532 88.9957 197.27 87.5533 197.984 86.4624C198.645 85.4442 200.523 89.0705 201.725 88.9027C205.695 88.347 209.289 85.4101 212.495 87.8141C214.13 89.0387 214.343 90.3087 214.995 92.0573C215.63 93.7219 217.273 94.5746 218.334 95.9535Z" fill="black"/>
<path d="M219.016 95.9535C220.275 97.6 220.543 99.8089 220.407 101.87C220.271 103.932 219.78 105.971 219.707 108.041C219.607 110.881 220.293 113.711 220.177 116.541C220.096 118.521 219.625 120.462 219.068 122.363C218.411 124.606 217.461 127.016 215.386 128.094C212.632 129.525 206.855 128.72 203.957 129.84C204.221 128.2 206.748 125.826 207.011 124.186C207.193 123.052 207.377 121.887 207.182 120.75C206.932 119.301 206.08 118.015 205.068 116.945C203.459 115.242 201.359 113.96 199.052 113.543C196.746 113.126 191.098 113.468 189.252 114.922C189.025 113.421 193.252 111.974 194.739 111.649C195.48 111.484 196.33 111.577 196.923 111.107C198.059 110.218 197.234 108.447 197.289 107.025C197.332 105.891 197.996 104.853 198.13 103.719C198.357 101.904 197.171 100.056 197.636 98.2758C197.809 97.6181 198.193 97.0398 198.459 96.4139C199.268 94.4975 198.914 92.3113 198.482 90.2747C198.214 88.9957 197.952 87.5533 198.666 86.4625C199.327 85.4442 200.621 85.0586 201.823 84.8886C205.848 84.3452 209.927 85.3953 213.186 87.8141C214.821 89.0387 215.034 90.3088 215.686 92.0573C216.311 93.7219 217.955 94.5746 219.016 95.9535Z" fill="#4C4981"/>
<path d="M68.6363 85.2083L80.9931 130.779C81.1447 131.337 81.4633 131.836 81.9062 132.209C82.3492 132.582 82.8956 132.812 83.4727 132.868L139.091 138.199C139.544 138.243 140.001 138.177 140.424 138.009C140.847 137.84 141.223 137.572 141.521 137.228C141.818 136.884 142.029 136.474 142.136 136.033C142.242 135.591 142.241 135.13 142.132 134.689L128.6 79.7201C128.439 79.0667 128.051 78.4915 127.505 78.0966C126.959 77.7017 126.291 77.5128 125.618 77.5634L71.1659 81.6274C70.7478 81.6598 70.342 81.7839 69.9775 81.9907C69.613 82.1976 69.2988 82.4822 69.0572 82.8243C68.8156 83.1663 68.6526 83.5573 68.5798 83.9694C68.5071 84.3815 68.5264 84.8045 68.6363 85.2083Z" fill="#9C9CA1"/>
<path d="M178.889 94.1006C182.265 94.1006 185.002 91.3337 185.002 87.9207C185.002 84.5076 182.265 81.7407 178.889 81.7407C175.512 81.7407 172.775 84.5076 172.775 87.9207C172.775 91.3337 175.512 94.1006 178.889 94.1006Z" fill="white"/>
<path d="M183.909 76.6471C183.909 76.6471 185.198 80.4708 181.395 82.0787L180.909 82.9269L183.291 85.2719C183.291 85.2719 186.227 79.9265 185.909 78.0283C185.909 78.0283 185.455 76.1006 183.909 76.6471Z" fill="white"/>
<path d="M179.591 94.1007C182.847 94.1007 185.486 91.4668 185.486 88.2178C185.486 84.9688 182.847 82.335 179.591 82.335C176.335 82.335 173.695 84.9688 173.695 88.2178C173.695 91.4668 176.335 94.1007 179.591 94.1007Z" fill="#E79F23"/>
<path d="M185.939 78.8968L185.002 77.3547L183.639 77.1619C183.93 72.0841 182.609 70.5715 182.609 70.5715L182.302 70.542L180.966 70.4127L178.452 67.8092V67.0699C181.984 67.4894 183.936 69.1631 184.991 71.1248C186.855 74.5675 185.939 78.8968 185.939 78.8968Z" fill="#E79F23"/>
<path opacity="0.1" d="M182.314 69.6077V70.5421L180.977 70.4128L178.464 67.8093C178.464 67.8093 182.352 68.6779 182.314 69.6077Z" fill="black" stroke="#4C4981" stroke-miterlimit="10"/>
<path opacity="0.1" d="M185.939 78.8968L185.002 77.3546V71.1339C186.855 74.5674 185.939 78.8968 185.939 78.8968Z" fill="black" stroke="#4C4981" stroke-miterlimit="10"/>
<path d="M168.697 90.636C170.266 89.7323 170.198 86.6854 168.546 83.8304C166.894 80.9755 164.284 79.3937 162.715 80.2974C161.147 81.2011 161.214 84.248 162.866 87.103C164.518 89.9579 167.128 91.5397 168.697 90.636Z" fill="white"/>
<path d="M166.591 84.9679C168.243 87.8231 170.271 89.7304 168.702 90.6375C167.134 91.5447 162.566 91.0911 160.914 88.2336C159.261 85.3761 160.761 81.43 162.33 80.5229C163.898 79.6157 164.936 82.1058 166.591 84.9679Z" fill="#E79F23"/>
<path opacity="0.1" d="M181.302 64.3983C181.302 73.522 175.045 82.3145 165.902 82.3145C161.511 82.3145 157.3 80.5739 154.195 77.4755C151.09 74.3771 149.345 70.1748 149.345 65.7931C149.345 61.4113 151.09 57.209 154.195 54.1107C157.3 51.0123 161.511 49.2717 165.902 49.2717C175.045 49.2807 181.302 55.2724 181.302 64.3983Z" fill="black"/>
<path d="M165.902 81.87C175.046 81.87 182.459 74.4731 182.459 65.3486C182.459 56.2241 175.046 48.8272 165.902 48.8272C156.758 48.8272 149.345 56.2241 149.345 65.3486C149.345 74.4731 156.758 81.87 165.902 81.87Z" fill="#AE6E79"/>
<path d="M164.448 58.0279C166.418 58.7513 167.584 60.7833 169.352 61.915C171.852 63.5025 175.107 63.092 177.961 62.3073C179.552 61.8742 181.216 61.3458 182.782 61.8266C183.012 61.9283 183.266 61.9644 183.516 61.9309C183.857 61.8334 184.025 61.4569 184.136 61.1213C186.073 55.3609 185.202 48.8362 182.28 43.5067C181.525 42.1324 180.62 40.8034 179.375 39.8487C178.393 39.098 177.239 38.6059 176.075 38.1863C173.948 37.4242 171.749 36.8824 169.511 36.5693C169.116 36.4977 168.713 36.4847 168.314 36.5308C167.766 36.6192 167.275 36.914 166.786 37.1771C164.694 38.2966 162.373 38.9256 160 39.0164C156.818 39.1365 153.182 38.3882 150.73 40.4247C147.775 42.8672 148.511 47.632 146.595 50.9476C145.327 53.1406 142.882 54.7327 142.48 57.2296C142.375 57.9928 142.423 58.7691 142.623 59.5133C143.559 63.3551 147.286 66.3305 151.259 66.4008C151.869 66.4473 152.48 66.3224 153.023 66.0403C153.378 65.7982 153.692 65.5002 153.952 65.1581C156.555 62.0828 159.532 56.2227 164.448 58.0279Z" fill="#444053"/>
<path opacity="0.1" d="M184.136 59.4499C184.025 59.7855 183.857 60.162 183.516 60.2595C183.266 60.2931 183.012 60.257 182.782 60.1552C181.216 59.6744 179.543 60.2028 177.964 60.636C175.107 61.4207 171.845 61.8402 169.355 60.2436C167.584 59.1097 166.42 57.0686 164.448 56.3565C159.532 54.5422 156.555 60.4115 153.945 63.4867C153.685 63.8289 153.371 64.1268 153.016 64.3689C152.473 64.651 151.862 64.7759 151.252 64.7295C147.293 64.6592 143.564 61.6837 142.616 57.842C142.564 57.6152 142.518 57.3884 142.484 57.1616C142.484 57.182 142.484 57.2002 142.473 57.2206C142.368 57.9838 142.417 58.7601 142.616 59.5043C143.552 63.3461 147.282 66.3215 151.252 66.3918C151.862 66.4383 152.473 66.3134 153.016 66.0313C153.371 65.7892 153.685 65.4912 153.945 65.149C156.555 62.0738 159.532 56.2136 164.448 58.0189C166.42 58.7423 167.584 60.7743 169.355 61.906C171.855 63.4935 175.107 63.083 177.964 62.2983C179.555 61.8652 181.216 61.3368 182.782 61.8175C183.012 61.9193 183.266 61.9554 183.516 61.9219C183.857 61.8244 184.025 61.4479 184.136 61.1122C184.917 58.7553 185.262 56.2762 185.155 53.7961C185.088 55.7195 184.745 57.6235 184.136 59.4499Z" fill="black"/>
</g>
<defs>
<clipPath id="clip0">
<rect width="260" height="140" fill="white"/>
</clipPath>
</defs>
</svg>
